<mxfile host="Electron" modified="2023-12-11T09:28:31.320Z" agent="Mozilla/5.0 (Macintosh; Intel Mac OS X 10_15_7) AppleWebKit/537.36 (KHTML, like Gecko) draw.io/22.1.2 Chrome/114.0.5735.289 Electron/25.9.4 Safari/537.36" etag="8-DbSHXEWB0vlTxj7peP" version="22.1.2" type="device">
  <diagram id="c5dyEHg7AfaV4GPwyMPI" name="Page-1">
    <mxGraphModel dx="-1291" dy="1699" grid="1" gridSize="10" guides="1" tooltips="1" connect="1" arrows="1" fold="1" page="0" pageScale="1" pageWidth="827" pageHeight="1169" background="none" math="0" shadow="0">
      <root>
        <mxCell id="0" />
        <mxCell id="1" parent="0" />
        <mxCell id="node21" value="base.BaseDistribution" style="verticalAlign=middle;align=center;overflow=fill;html=1;rounded=0;shadow=0;comic=0;strokeWidth=1;fontFamily=Courier New;horizontal=1;fontSize=16;" parent="1" vertex="1">
          <mxGeometry x="3880" y="-490" width="230" height="30" as="geometry" />
        </mxCell>
        <mxCell id="node5" value="base.ScipyDistribution" style="verticalAlign=middle;align=center;overflow=fill;html=1;rounded=0;shadow=0;comic=0;strokeWidth=1;fontFamily=Courier New;horizontal=1;fontSize=16;" parent="1" vertex="1">
          <mxGeometry x="5200" y="-400" width="230" height="30" as="geometry" />
        </mxCell>
        <mxCell id="node9" value="base.UniqueDistributionMixin" style="verticalAlign=middle;align=center;overflow=fill;html=1;rounded=0;shadow=0;comic=0;strokeWidth=1;fontFamily=Courier New;horizontal=1;fontSize=16;" parent="1" vertex="1">
          <mxGeometry x="3370" y="-400" width="290" height="30" as="geometry" />
        </mxCell>
        <mxCell id="node33" value="categorical.MultinoulliDistribution" style="verticalAlign=middle;align=center;overflow=fill;html=1;rounded=0;shadow=0;comic=0;strokeWidth=1;fontFamily=Courier New;horizontal=1;fontSize=16;fillColor=#fff2cc;strokeColor=#d6b656;" parent="1" vertex="1">
          <mxGeometry x="4510" y="-180" width="360" height="30" as="geometry" />
        </mxCell>
        <mxCell id="node31" value="continuous.ExponentialDistribution" style="verticalAlign=middle;align=center;overflow=fill;html=1;rounded=0;shadow=0;comic=0;strokeWidth=1;fontFamily=Courier New;horizontal=1;fontSize=16;fillColor=#f8cecc;strokeColor=#b85450;" parent="1" vertex="1">
          <mxGeometry x="5480" y="-210" width="350" height="30" as="geometry" />
        </mxCell>
        <mxCell id="node12" value="continuous.LogNormalDistribution" style="verticalAlign=middle;align=center;overflow=fill;html=1;rounded=0;shadow=0;comic=0;strokeWidth=1;fontFamily=Courier New;horizontal=1;fontSize=16;fillColor=#f8cecc;strokeColor=#b85450;" parent="1" vertex="1">
          <mxGeometry x="5480" y="-330" width="330" height="30" as="geometry" />
        </mxCell>
        <mxCell id="node29" value="continuous.NormalDistribution" style="verticalAlign=middle;align=center;overflow=fill;html=1;rounded=0;shadow=0;comic=0;strokeWidth=1;fontFamily=Courier New;horizontal=1;fontSize=16;fillColor=#f8cecc;strokeColor=#b85450;" parent="1" vertex="1">
          <mxGeometry x="5480" y="-290" width="300" height="30" as="geometry" />
        </mxCell>
        <mxCell id="node11" value="continuous.UniformDistribution" style="verticalAlign=middle;align=center;overflow=fill;html=1;rounded=0;shadow=0;comic=0;strokeWidth=1;fontFamily=Courier New;horizontal=1;fontSize=16;fillColor=#f8cecc;strokeColor=#b85450;" parent="1" vertex="1">
          <mxGeometry x="5480" y="-170" width="310" height="30" as="geometry" />
        </mxCell>
        <mxCell id="node4" value="datetime.BaseUniformDistribution" style="verticalAlign=middle;align=center;overflow=fill;html=1;rounded=0;shadow=0;comic=0;strokeWidth=1;fontFamily=Courier New;horizontal=1;fontSize=16;fillColor=#C7ABE7;strokeColor=default;" parent="1" vertex="1">
          <mxGeometry x="4900" y="-180" width="330" height="30" as="geometry" />
        </mxCell>
        <mxCell id="node20" value="datetime.UniformDateDistribution" style="verticalAlign=middle;align=center;overflow=fill;html=1;rounded=0;shadow=0;comic=0;strokeWidth=1;fontFamily=Courier New;horizontal=1;fontSize=16;fillColor=#C7ABE7;strokeColor=default;" parent="1" vertex="1">
          <mxGeometry x="4900" y="80" width="330" height="30" as="geometry" />
        </mxCell>
        <mxCell id="node30" value="datetime.UniformDateTimeDistribution" style="verticalAlign=middle;align=center;overflow=fill;html=1;rounded=0;shadow=0;comic=0;strokeWidth=1;fontFamily=Courier New;horizontal=1;fontSize=16;fillColor=#C7ABE7;strokeColor=default;" parent="1" vertex="1">
          <mxGeometry x="5090" y="20" width="370" height="30" as="geometry" />
        </mxCell>
        <mxCell id="node3" value="datetime.UniformTimeDistribution" style="verticalAlign=middle;align=center;overflow=fill;html=1;rounded=0;shadow=0;comic=0;strokeWidth=1;fontFamily=Courier New;horizontal=1;fontSize=16;fillColor=#C7ABE7;strokeColor=default;" parent="1" vertex="1">
          <mxGeometry x="4710" y="20" width="330" height="30" as="geometry" />
        </mxCell>
        <mxCell id="node35" value="discrete.DiscreteUniformDistribution" style="verticalAlign=middle;align=center;overflow=fill;html=1;rounded=0;shadow=0;comic=0;strokeWidth=1;fontFamily=Courier New;horizontal=1;fontSize=16;fillColor=#E7CBDF;strokeColor=#9673a6;" parent="1" vertex="1">
          <mxGeometry x="5480" y="-100" width="370" height="30" as="geometry" />
        </mxCell>
        <mxCell id="node22" value="discrete.PoissonDistribution" style="verticalAlign=middle;align=center;overflow=fill;html=1;rounded=0;shadow=0;comic=0;strokeWidth=1;fontFamily=Courier New;horizontal=1;fontSize=16;fillColor=#E7CBDF;strokeColor=#9673a6;" parent="1" vertex="1">
          <mxGeometry x="5480" y="-60" width="290" height="30" as="geometry" />
        </mxCell>
        <mxCell id="node24" value="discrete.UniqueKeyDistribution" style="verticalAlign=middle;align=center;overflow=fill;html=1;rounded=0;shadow=0;comic=0;strokeWidth=1;fontFamily=Courier New;horizontal=1;fontSize=16;fillColor=#E7CBDF;strokeColor=#9673a6;" parent="1" vertex="1">
          <mxGeometry x="5480" y="-20" width="310" height="30" as="geometry" />
        </mxCell>
        <mxCell id="node23" value="faker.FakerDistribution" style="verticalAlign=middle;align=center;overflow=fill;html=1;rounded=0;shadow=0;comic=0;strokeWidth=1;fontFamily=Courier New;horizontal=1;fontSize=16;fillColor=#DBFCD6;strokeColor=#6DACBF;" parent="1" vertex="1">
          <mxGeometry x="3180" y="-180" width="240" height="30" as="geometry" />
        </mxCell>
        <mxCell id="node26" value="faker.FreeTextDistribution" style="verticalAlign=middle;align=center;overflow=fill;html=1;rounded=0;shadow=0;comic=0;strokeWidth=1;fontFamily=Courier New;horizontal=1;fontSize=16;fillColor=#DBFCD6;strokeColor=#6DACBF;" parent="1" vertex="1">
          <mxGeometry x="2900" y="-180" width="270" height="30" as="geometry" />
        </mxCell>
        <mxCell id="node27" value="faker.UniqueFakerDistribution" style="verticalAlign=middle;align=center;overflow=fill;html=1;rounded=0;shadow=0;comic=0;strokeWidth=1;fontFamily=Courier New;horizontal=1;fontSize=16;fillColor=#DBFCD6;strokeColor=#6DACBF;" parent="1" vertex="1">
          <mxGeometry x="3150" y="-80" width="300" height="30" as="geometry" />
        </mxCell>
        <mxCell id="node16" value="legacy.regex.base.RegexDistribution" style="verticalAlign=middle;align=center;overflow=fill;html=1;rounded=0;shadow=0;comic=0;strokeWidth=1;fontFamily=Courier New;horizontal=1;fontSize=16;fillColor=#d5e8d4;strokeColor=#82b366;" parent="1" vertex="1">
          <mxGeometry x="3880" y="-180" width="360" height="30" as="geometry" />
        </mxCell>
        <mxCell id="node25" value="legacy.regex.base.UniqueRegexDistribution" style="verticalAlign=middle;align=center;overflow=fill;html=1;rounded=0;shadow=0;comic=0;strokeWidth=1;fontFamily=Courier New;horizontal=1;fontSize=16;fillColor=#d5e8d4;strokeColor=#82b366;" parent="1" vertex="1">
          <mxGeometry x="3850" y="-80" width="420" height="30" as="geometry" />
        </mxCell>
        <mxCell id="node10" value="na.NADistribution" style="verticalAlign=middle;align=center;overflow=fill;html=1;rounded=0;shadow=0;comic=0;strokeWidth=1;fontFamily=Courier New;horizontal=1;fontSize=16;fillColor=#ffe6cc;strokeColor=#d79b00;" parent="1" vertex="1">
          <mxGeometry x="4280" y="-180" width="190" height="30" as="geometry" />
        </mxCell>
        <mxCell id="node6" value="regex.RegexDistribution" style="verticalAlign=middle;align=center;overflow=fill;html=1;rounded=0;shadow=0;comic=0;strokeWidth=1;fontFamily=Courier New;horizontal=1;fontSize=16;fillColor=#dae8fc;strokeColor=#6c8ebf;" parent="1" vertex="1">
          <mxGeometry x="3600" y="-180" width="240" height="30" as="geometry" />
        </mxCell>
        <mxCell id="node36" value="regex.UniqueRegexDistribution" style="verticalAlign=middle;align=center;overflow=fill;html=1;rounded=0;shadow=0;comic=0;strokeWidth=1;fontFamily=Courier New;horizontal=1;fontSize=16;fillColor=#dae8fc;strokeColor=#6c8ebf;" parent="1" vertex="1">
          <mxGeometry x="3500" y="-80" width="300" height="30" as="geometry" />
        </mxCell>
        <mxCell id="edge27" value="" style="html=1;rounded=1;dashed=0;startArrow=block;startSize=12;endArrow=none;exitX=0.500;exitY=0.002;exitDx=0;exitDy=0;entryX=0.500;entryY=1.002;entryDx=0;entryDy=0;edgeStyle=elbowEdgeStyle;elbow=vertical;fontFamily=Courier New;verticalAlign=middle;horizontal=1;fontSize=16;align=center;shadow=0;strokeColor=#030303;" parent="1" source="node5" target="node21" edge="1">
          <mxGeometry width="50" height="50" relative="1" as="geometry" />
        </mxCell>
        <mxCell id="edge21" value="" style="html=1;rounded=1;dashed=0;startArrow=block;startSize=12;endArrow=none;exitX=0.500;exitY=0.002;exitDx=0;exitDy=0;entryX=0.500;entryY=1.002;entryDx=0;entryDy=0;edgeStyle=elbowEdgeStyle;elbow=vertical;fontFamily=Courier New;verticalAlign=middle;horizontal=1;fontSize=16;align=center;shadow=0;strokeColor=#030303;" parent="1" source="node9" target="node21" edge="1">
          <mxGeometry width="50" height="50" relative="1" as="geometry" />
        </mxCell>
        <mxCell id="edge14" value="" style="html=1;rounded=1;dashed=0;startArrow=block;startSize=12;endArrow=none;exitX=0.500;exitY=0.002;exitDx=0;exitDy=0;entryX=0.500;entryY=1.002;entryDx=0;entryDy=0;edgeStyle=elbowEdgeStyle;elbow=vertical;fontFamily=Courier New;verticalAlign=middle;horizontal=1;fontSize=16;align=center;shadow=0;strokeColor=#030303;" parent="1" source="node33" target="node21" edge="1">
          <mxGeometry width="50" height="50" relative="1" as="geometry" />
        </mxCell>
        <mxCell id="edge9" value="" style="html=1;rounded=1;dashed=0;startArrow=block;startSize=12;endArrow=none;exitX=0;exitY=0.5;exitDx=0;exitDy=0;entryX=0.5;entryY=1;entryDx=0;entryDy=0;edgeStyle=elbowEdgeStyle;fontFamily=Courier New;verticalAlign=middle;horizontal=1;fontSize=16;align=center;shadow=0;strokeColor=#030303;" parent="1" source="node31" target="node5" edge="1">
          <mxGeometry width="50" height="50" relative="1" as="geometry">
            <Array as="points">
              <mxPoint x="5315" y="-260" />
            </Array>
          </mxGeometry>
        </mxCell>
        <mxCell id="edge4" value="" style="html=1;rounded=1;dashed=0;startArrow=block;startSize=12;endArrow=none;exitX=0;exitY=0.5;exitDx=0;exitDy=0;entryX=0.5;entryY=1;entryDx=0;entryDy=0;edgeStyle=elbowEdgeStyle;fontFamily=Courier New;verticalAlign=middle;horizontal=1;fontSize=16;align=center;shadow=0;strokeColor=#030303;" parent="1" source="node12" target="node5" edge="1">
          <mxGeometry width="50" height="50" relative="1" as="geometry">
            <Array as="points">
              <mxPoint x="5315" y="-300" />
            </Array>
          </mxGeometry>
        </mxCell>
        <mxCell id="edge22" value="" style="html=1;rounded=1;dashed=0;startArrow=block;startSize=12;endArrow=none;exitX=0;exitY=0.5;exitDx=0;exitDy=0;entryX=0.5;entryY=1;entryDx=0;entryDy=0;edgeStyle=elbowEdgeStyle;fontFamily=Courier New;verticalAlign=middle;horizontal=1;fontSize=16;align=center;shadow=0;strokeColor=#030303;" parent="1" source="node29" target="node5" edge="1">
          <mxGeometry width="50" height="50" relative="1" as="geometry">
            <Array as="points">
              <mxPoint x="5315" y="-260" />
            </Array>
          </mxGeometry>
        </mxCell>
        <mxCell id="edge12" value="" style="html=1;rounded=1;dashed=0;startArrow=block;startSize=12;endArrow=none;exitX=0;exitY=0.5;exitDx=0;exitDy=0;edgeStyle=elbowEdgeStyle;fontFamily=Courier New;verticalAlign=middle;horizontal=1;fontSize=16;align=center;shadow=0;entryX=0.5;entryY=1;entryDx=0;entryDy=0;strokeColor=#030303;" parent="1" source="node13" target="node5" edge="1">
          <mxGeometry width="50" height="50" relative="1" as="geometry">
            <mxPoint x="5320" y="-350" as="targetPoint" />
            <Array as="points">
              <mxPoint x="5315" y="-260" />
            </Array>
          </mxGeometry>
        </mxCell>
        <mxCell id="edge17" value="" style="html=1;rounded=1;dashed=0;startArrow=block;startSize=12;endArrow=none;exitX=0;exitY=0.5;exitDx=0;exitDy=0;edgeStyle=elbowEdgeStyle;fontFamily=Courier New;verticalAlign=middle;horizontal=1;fontSize=16;align=center;shadow=0;entryX=0.5;entryY=1;entryDx=0;entryDy=0;strokeColor=#030303;" parent="1" source="node11" target="node5" edge="1">
          <mxGeometry width="50" height="50" relative="1" as="geometry">
            <mxPoint x="5300" y="-260" as="targetPoint" />
            <Array as="points">
              <mxPoint x="5315" y="-240" />
            </Array>
          </mxGeometry>
        </mxCell>
        <mxCell id="edge26" value="" style="html=1;rounded=1;dashed=0;startArrow=block;startSize=12;endArrow=none;exitX=0.5;exitY=0;exitDx=0;exitDy=0;entryX=0.5;entryY=1;entryDx=0;entryDy=0;edgeStyle=elbowEdgeStyle;fontFamily=Courier New;verticalAlign=middle;horizontal=1;fontSize=16;align=center;shadow=0;strokeColor=#030303;elbow=vertical;" parent="1" source="node4" target="node21" edge="1">
          <mxGeometry width="50" height="50" relative="1" as="geometry">
            <Array as="points">
              <mxPoint x="4350" y="-320" />
            </Array>
          </mxGeometry>
        </mxCell>
        <mxCell id="edge28" value="" style="html=1;rounded=1;dashed=0;startArrow=block;startSize=12;endArrow=none;edgeStyle=elbowEdgeStyle;fontFamily=Courier New;verticalAlign=middle;horizontal=1;fontSize=16;align=center;shadow=0;strokeColor=#030303;elbow=vertical;" parent="1" source="node20" target="node4" edge="1">
          <mxGeometry width="50" height="50" relative="1" as="geometry" />
        </mxCell>
        <mxCell id="edge6" value="" style="html=1;rounded=1;dashed=0;startArrow=block;startSize=12;endArrow=none;edgeStyle=elbowEdgeStyle;fontFamily=Courier New;verticalAlign=middle;horizontal=1;fontSize=16;align=center;shadow=0;strokeColor=#030303;entryX=0.5;entryY=1;entryDx=0;entryDy=0;exitX=0.5;exitY=0;exitDx=0;exitDy=0;elbow=vertical;" parent="1" source="node30" target="node4" edge="1">
          <mxGeometry width="50" height="50" relative="1" as="geometry" />
        </mxCell>
        <mxCell id="edge5" value="" style="html=1;rounded=1;dashed=0;startArrow=block;startSize=12;endArrow=none;edgeStyle=elbowEdgeStyle;fontFamily=Courier New;verticalAlign=middle;horizontal=1;fontSize=16;align=center;shadow=0;strokeColor=#030303;elbow=vertical;" parent="1" source="node3" target="node4" edge="1">
          <mxGeometry width="50" height="50" relative="1" as="geometry" />
        </mxCell>
        <mxCell id="edge20" value="" style="html=1;rounded=1;dashed=0;startArrow=block;startSize=12;endArrow=none;entryX=0.5;entryY=1;entryDx=0;entryDy=0;edgeStyle=elbowEdgeStyle;exitX=0;exitY=0.5;exitDx=0;exitDy=0;fontFamily=Courier New;verticalAlign=middle;horizontal=1;fontSize=16;align=center;shadow=0;strokeColor=#030303;" parent="1" source="node13" target="node5" edge="1">
          <mxGeometry width="50" height="50" relative="1" as="geometry">
            <mxPoint x="5790" y="30" as="sourcePoint" />
            <Array as="points">
              <mxPoint x="5315" y="-280" />
            </Array>
          </mxGeometry>
        </mxCell>
        <mxCell id="edge2" value="" style="html=1;rounded=1;dashed=0;startArrow=block;startSize=12;endArrow=none;exitX=0;exitY=0.5;exitDx=0;exitDy=0;entryX=0.5;entryY=1;entryDx=0;entryDy=0;edgeStyle=elbowEdgeStyle;fontFamily=Courier New;verticalAlign=middle;horizontal=1;fontSize=16;align=center;shadow=0;strokeColor=#030303;" parent="1" source="node22" target="node5" edge="1">
          <mxGeometry width="50" height="50" relative="1" as="geometry">
            <Array as="points">
              <mxPoint x="5315" y="-190" />
            </Array>
          </mxGeometry>
        </mxCell>
        <mxCell id="edge7" value="" style="html=1;rounded=1;dashed=0;startArrow=block;startSize=12;endArrow=none;entryX=0.5;entryY=1;entryDx=0;entryDy=0;edgeStyle=elbowEdgeStyle;fontFamily=Courier New;verticalAlign=middle;horizontal=1;fontSize=16;align=center;shadow=0;strokeColor=#030303;exitX=0;exitY=0.5;exitDx=0;exitDy=0;" parent="1" source="node24" target="node5" edge="1">
          <mxGeometry width="50" height="50" relative="1" as="geometry">
            <Array as="points">
              <mxPoint x="5315" y="-170" />
            </Array>
          </mxGeometry>
        </mxCell>
        <mxCell id="edge32" value="" style="html=1;rounded=1;dashed=0;startArrow=block;startSize=12;endArrow=none;entryX=0.500;entryY=1.002;entryDx=0;entryDy=0;edgeStyle=elbowEdgeStyle;elbow=vertical;fontFamily=Courier New;verticalAlign=middle;horizontal=1;fontSize=16;align=center;shadow=0;exitX=0.5;exitY=0;exitDx=0;exitDy=0;strokeColor=#030303;" parent="1" source="node23" target="node21" edge="1">
          <mxGeometry width="50" height="50" relative="1" as="geometry">
            <mxPoint x="3130" y="-190" as="sourcePoint" />
          </mxGeometry>
        </mxCell>
        <mxCell id="edge31" value="" style="html=1;rounded=1;dashed=0;startArrow=block;startSize=12;endArrow=none;exitX=0.500;exitY=0.002;exitDx=0;exitDy=0;entryX=0.500;entryY=1.002;entryDx=0;entryDy=0;edgeStyle=elbowEdgeStyle;elbow=vertical;fontFamily=Courier New;verticalAlign=middle;horizontal=1;fontSize=16;align=center;shadow=0;strokeColor=#030303;" parent="1" source="node26" target="node21" edge="1">
          <mxGeometry width="50" height="50" relative="1" as="geometry" />
        </mxCell>
        <mxCell id="edge16" value="" style="html=1;rounded=1;dashed=0;startArrow=block;startSize=12;endArrow=none;exitX=0.500;exitY=0.001;exitDx=0;exitDy=0;entryX=0.25;entryY=1;entryDx=0;entryDy=0;edgeStyle=elbowEdgeStyle;elbow=vertical;fontFamily=Courier New;verticalAlign=middle;horizontal=1;fontSize=16;align=center;shadow=0;strokeColor=#030303;" parent="1" source="node27" target="node9" edge="1">
          <mxGeometry width="50" height="50" relative="1" as="geometry">
            <Array as="points">
              <mxPoint x="3390" y="-120" />
            </Array>
          </mxGeometry>
        </mxCell>
        <mxCell id="edge1" value="" style="html=1;rounded=1;dashed=0;startArrow=block;startSize=12;endArrow=none;exitX=0.500;exitY=0.001;exitDx=0;exitDy=0;entryX=0.500;entryY=1.001;entryDx=0;entryDy=0;edgeStyle=elbowEdgeStyle;elbow=vertical;fontFamily=Courier New;verticalAlign=middle;horizontal=1;fontSize=16;align=center;shadow=0;fillColor=#dae8fc;strokeColor=#030303;" parent="1" source="node27" target="node23" edge="1">
          <mxGeometry width="50" height="50" relative="1" as="geometry">
            <Array as="points">
              <mxPoint x="3250" y="-120" />
            </Array>
          </mxGeometry>
        </mxCell>
        <mxCell id="edge13" value="" style="html=1;rounded=1;dashed=0;startArrow=block;startSize=12;endArrow=none;exitX=0.500;exitY=0.002;exitDx=0;exitDy=0;entryX=0.500;entryY=1.002;entryDx=0;entryDy=0;edgeStyle=elbowEdgeStyle;elbow=vertical;fontFamily=Courier New;verticalAlign=middle;horizontal=1;fontSize=16;align=center;shadow=0;strokeColor=#030303;" parent="1" source="node16" target="node21" edge="1">
          <mxGeometry width="50" height="50" relative="1" as="geometry" />
        </mxCell>
        <mxCell id="edge38" value="" style="html=1;rounded=1;dashed=0;startArrow=block;startSize=12;endArrow=none;exitX=0.500;exitY=0.002;exitDx=0;exitDy=0;entryX=0.500;entryY=1.002;entryDx=0;entryDy=0;edgeStyle=elbowEdgeStyle;elbow=vertical;fontFamily=Courier New;verticalAlign=middle;horizontal=1;fontSize=16;align=center;shadow=0;strokeColor=#030303;" parent="1" source="node25" target="node16" edge="1">
          <mxGeometry width="50" height="50" relative="1" as="geometry" />
        </mxCell>
        <mxCell id="edge11" value="" style="html=1;rounded=1;dashed=0;startArrow=block;startSize=12;endArrow=none;exitX=0.500;exitY=0.002;exitDx=0;exitDy=0;entryX=0.500;entryY=1.002;entryDx=0;entryDy=0;edgeStyle=elbowEdgeStyle;elbow=vertical;fontFamily=Courier New;verticalAlign=middle;horizontal=1;fontSize=16;align=center;shadow=0;strokeColor=#030303;" parent="1" source="node10" target="node21" edge="1">
          <mxGeometry width="50" height="50" relative="1" as="geometry" />
        </mxCell>
        <mxCell id="edge3" value="" style="html=1;rounded=1;dashed=0;startArrow=block;startSize=12;endArrow=none;exitX=0.500;exitY=0.002;exitDx=0;exitDy=0;entryX=0.500;entryY=1.002;entryDx=0;entryDy=0;edgeStyle=elbowEdgeStyle;elbow=vertical;fontFamily=Courier New;verticalAlign=middle;horizontal=1;fontSize=16;align=center;shadow=0;strokeColor=#030303;" parent="1" source="node6" target="node21" edge="1">
          <mxGeometry width="50" height="50" relative="1" as="geometry" />
        </mxCell>
        <mxCell id="edge29" value="" style="html=1;rounded=1;dashed=0;startArrow=block;startSize=12;endArrow=none;exitX=0.500;exitY=0.001;exitDx=0;exitDy=0;entryX=0.75;entryY=1;entryDx=0;entryDy=0;edgeStyle=elbowEdgeStyle;elbow=vertical;fontFamily=Courier New;verticalAlign=middle;horizontal=1;fontSize=16;align=center;shadow=0;strokeColor=#030303;" parent="1" source="node36" target="node9" edge="1">
          <mxGeometry width="50" height="50" relative="1" as="geometry">
            <Array as="points">
              <mxPoint x="3620" y="-120" />
            </Array>
          </mxGeometry>
        </mxCell>
        <mxCell id="edge10" value="" style="html=1;rounded=1;dashed=0;startArrow=block;startSize=12;endArrow=none;exitX=0.500;exitY=0.001;exitDx=0;exitDy=0;entryX=0.500;entryY=1.001;entryDx=0;entryDy=0;edgeStyle=elbowEdgeStyle;elbow=vertical;fontFamily=Courier New;verticalAlign=middle;horizontal=1;fontSize=16;align=center;shadow=0;strokeColor=#030303;" parent="1" source="node36" target="node6" edge="1">
          <mxGeometry width="50" height="50" relative="1" as="geometry">
            <Array as="points">
              <mxPoint x="3620" y="-120" />
            </Array>
          </mxGeometry>
        </mxCell>
        <mxCell id="nx7OGAApwXRkNpX-GxNp-8" value="" style="html=1;rounded=1;dashed=0;startArrow=block;startSize=12;endArrow=none;edgeStyle=orthogonalEdgeStyle;entryX=0.5;entryY=1;entryDx=0;entryDy=0;fontFamily=Courier New;verticalAlign=middle;horizontal=1;fontSize=16;align=center;shadow=0;strokeColor=#030303;exitX=0;exitY=0.5;exitDx=0;exitDy=0;" parent="1" source="node35" target="node5" edge="1">
          <mxGeometry width="50" height="50" relative="1" as="geometry">
            <mxPoint x="5380" y="-60" as="sourcePoint" />
            <mxPoint x="5320" y="-90" as="targetPoint" />
          </mxGeometry>
        </mxCell>
        <mxCell id="node13" value="continuous.TruncatedNormalDistribution" style="verticalAlign=middle;align=center;overflow=fill;html=1;rounded=0;shadow=0;comic=0;strokeWidth=1;fontFamily=Courier New;horizontal=1;fontSize=16;fillColor=#f8cecc;strokeColor=#b85450;" parent="1" vertex="1">
          <mxGeometry x="5480" y="-250" width="390" height="30" as="geometry" />
        </mxCell>
      </root>
    </mxGraphModel>
  </diagram>
</mxfile>
